<svg width="83" height="63" viewBox="0 0 83 63" fill="none" xmlns="http://www.w3.org/2000/svg">
<g clip-path="url(#clip0_222_2)">
<path d="M76.9421 39.0637H76.9153C75.3641 36.6426 72.957 34.0442 69.8947 31.4262C78.266 24.202 81.0609 17.5388 77.3433 13.4445C73.9733 9.75363 66.0433 8.83831 55.4254 10.8855C51.8148 3.94673 46.5192 0 40.7155 0C38.3485 0 36.0885 0.639744 33.9623 1.8897C33.2134 1.64365 32.3843 1.50586 31.5151 1.50586C28.1719 1.50586 25.4572 3.50383 25.4572 5.96438C25.4572 7.1356 26.0857 8.19856 27.1021 9.00562C26.7143 9.63552 26.3398 10.295 25.9921 10.9839C15.294 8.94657 7.31049 9.88158 3.96731 13.6019C0.276452 17.716 3.11146 24.3693 11.5363 31.5443C3.16495 38.7783 0.383434 45.4513 4.10104 49.5457C4.89003 50.402 5.9331 51.1204 7.21688 51.6814C7.2257 52.8601 7.86762 53.9883 9.00254 54.82C10.1375 55.6516 11.6732 56.119 13.2747 56.1203C15.9626 56.1203 18.2092 54.8211 19.0116 53.0397C21.2047 52.8822 23.5449 52.5673 26.0055 52.0948C29.6028 59.0434 34.9117 63 40.7155 63C46.546 63 51.8549 59.0139 55.4655 52.0161C59.1564 52.7149 62.5397 53.0889 65.495 53.0889C71.1116 53.0889 75.2705 51.8488 77.4636 49.4079C77.9049 48.9256 78.2392 48.3942 78.4933 47.8331C81.0742 47.3214 82.9999 45.599 82.9999 43.5419C83.0034 42.9548 82.8493 42.3729 82.5465 41.8297C82.2436 41.2865 81.798 40.7927 81.2351 40.3766C80.6722 39.9605 80.0032 39.6303 79.2665 39.405C78.5298 39.1797 77.7399 39.0637 76.9421 39.0637ZM55.1713 21.6037C53.9411 20.9442 52.6573 20.2946 51.3601 19.6549C49.2413 18.6222 47.0688 17.6503 44.8476 16.7416C47.6425 15.7869 50.3572 14.9995 52.9916 14.3598C53.9143 16.5841 54.6498 19.0348 55.1713 21.6037ZM37.5863 5.96438C37.5863 5.18685 37.2921 4.46836 36.8106 3.82862C38.0944 3.15935 39.4049 2.81487 40.7155 2.81487C44.7273 2.81487 48.7792 6.11201 51.7346 11.6925C48.164 12.5587 44.4464 13.7004 40.6486 15.1078C37.107 13.7958 33.4371 12.6805 29.6696 11.7713C29.9237 11.2792 30.1912 10.8067 30.472 10.3442C30.8063 10.3835 31.154 10.4229 31.5151 10.4229C34.8716 10.4229 37.5863 8.42493 37.5863 5.96438ZM31.5284 4.32073C32.7587 4.32073 33.7617 5.0589 33.7617 5.96438C33.7617 6.86986 32.7587 7.60803 31.5284 7.60803C30.2981 7.60803 29.2952 6.86986 29.2952 5.96438C29.2952 5.0589 30.2981 4.32073 31.5284 4.32073ZM28.4126 14.4484C31.047 15.0783 33.7349 15.8361 36.4763 16.7613C34.2698 17.6865 32.0901 18.6707 30.0039 19.7041C28.7335 20.334 27.4765 20.9738 26.273 21.6332C26.7811 19.084 27.5032 16.653 28.4126 14.4484ZM7.16339 15.157C9.46349 12.598 16.1097 12.0567 24.7351 13.6511C23.4379 16.8105 22.5019 20.3734 21.9803 24.0839C19.211 25.7469 16.5849 27.5351 14.1172 29.4381C7.31049 23.5426 4.59583 18.0211 7.16339 15.157ZM21.5658 34.9792C19.8805 33.8868 18.2608 32.7408 16.7115 31.5443C18.2226 30.3632 19.8407 29.2117 21.5658 28.07C21.4855 29.2117 21.4588 30.3534 21.4588 31.4951C21.4454 32.6663 21.4855 33.8277 21.5658 34.9792ZM13.2747 53.2956C12.0444 53.2956 11.0415 52.5574 11.0415 51.6519C11.0415 50.7464 12.0444 50.0083 13.2747 50.0083C14.505 50.0083 15.5079 50.7464 15.5079 51.6519C15.5079 52.5574 14.505 53.2956 13.2747 53.2956ZM18.9848 50.2051C18.1691 48.4532 15.9225 47.1836 13.2747 47.1836C11.3357 47.1836 9.62396 47.8725 8.51403 48.9158C8.01924 48.6402 7.60469 48.3253 7.28374 47.9709C4.64932 45.0675 7.27037 39.6543 14.1306 33.6407C16.595 35.5242 19.2167 37.2926 21.9803 38.9358C22.5152 42.6561 23.4513 46.2387 24.7618 49.4079C22.7292 49.7917 20.7902 50.0575 18.9848 50.2051ZM26.273 41.3767C27.5166 42.0459 28.787 42.6955 30.0842 43.3254C32.1971 44.3588 34.3768 45.3332 36.5967 46.2486C33.8152 47.2032 31.1005 47.9808 28.4527 48.6205C27.53 46.3863 26.7945 43.9455 26.273 41.3767ZM40.7155 60.1654C36.6903 60.1654 32.6384 56.8683 29.683 51.2779C33.2802 50.4118 36.9979 49.2701 40.769 47.8627C44.4999 49.2307 48.1774 50.3429 51.7747 51.1992C48.8193 56.8486 44.754 60.1654 40.7155 60.1654ZM53.0317 48.5418C50.3973 47.9119 47.696 47.1442 44.9546 46.2289C47.1683 45.3056 49.336 44.3241 51.4537 43.286C52.7241 42.6561 53.9812 42.0066 55.1847 41.3471C54.6632 43.9061 53.9277 46.3371 53.0317 48.5418ZM55.7999 37.4398C53.704 38.6695 51.5403 39.8351 49.3141 40.9338C46.5511 42.2923 43.6993 43.5504 40.769 44.7033C37.8299 43.5646 34.9691 42.3197 32.1971 40.9731C29.9529 39.8787 27.7713 38.7163 25.6578 37.489C25.4171 35.5402 25.2834 33.5324 25.2834 31.5049C25.2834 29.5168 25.4171 27.5188 25.6444 25.5504C27.6905 24.3496 29.8568 23.1686 32.1436 22.0466C34.885 20.6883 37.7467 19.4384 40.6753 18.2967C43.604 19.4187 46.4791 20.6686 49.2472 22.017C51.5473 23.139 53.7271 24.3103 55.7865 25.511C56.0272 27.4696 56.1609 29.4676 56.1609 31.4951C56.1609 33.4832 56.0272 35.4713 55.7999 37.4398ZM74.1606 15.0192C76.7549 17.8735 74.0669 23.4048 67.3004 29.3396C64.8473 27.4542 62.2296 25.6887 59.464 24.0544C58.9291 20.3143 57.9796 16.7219 56.6691 13.5626C65.3479 11.9288 71.807 12.4504 74.1606 15.0192ZM59.8785 28.0109C61.6036 29.1329 63.2217 30.2845 64.7194 31.4459C63.1717 32.6495 61.5567 33.8054 59.8785 34.9103C59.9588 33.7785 59.9855 32.6368 59.9855 31.5049C59.9989 30.3239 59.9588 29.1625 59.8785 28.0109ZM74.2809 47.8331C71.9808 50.3921 65.3346 50.9334 56.7092 49.339C58.0063 46.1895 58.9424 42.6168 59.4773 38.8866C62.3525 37.1445 64.9735 35.3532 67.3137 33.5324C69.8947 35.7666 71.9139 37.9614 73.278 39.9987C71.8337 40.8157 70.8842 42.0853 70.8842 43.5223C70.8842 45.3332 72.3552 46.8785 74.4548 47.5773C74.3879 47.6658 74.3478 47.7544 74.2809 47.8331ZM76.9822 45.1659H76.9287C75.7118 45.1561 74.7088 44.4277 74.7088 43.5223C74.7088 42.6168 75.7118 41.8786 76.9421 41.8786C78.1724 41.8786 79.1753 42.6168 79.1753 43.5223C79.1753 44.4277 78.1991 45.1561 76.9822 45.1659Z" fill="white" fill-opacity="0.7"/>
<path d="M36.0195 34.6794L33.8927 33.2619L36.0195 31.8444C36.7847 31.3325 36.8625 30.4367 36.1881 29.856C35.5137 29.2653 34.3336 29.2161 33.5684 29.728L29.8464 32.1988C29.4444 32.4646 29.2109 32.8485 29.2109 33.2619C29.2109 33.6655 29.4444 34.0592 29.8464 34.325L33.5684 36.7958C33.9186 37.0321 34.3595 37.1502 34.7875 37.1502C35.3062 37.1502 35.812 36.9828 36.1881 36.6678C36.8755 36.0871 36.7977 35.2011 36.0195 34.6794ZM47.432 29.7378C46.6539 29.226 45.4867 29.285 44.8123 29.8658C44.138 30.4466 44.2158 31.3424 44.9809 31.8542L47.1078 33.2717L44.9809 34.6892C44.2028 35.2011 44.138 36.0969 44.8123 36.6777C44.9722 36.8179 45.1672 36.9326 45.386 37.0151C45.6048 37.0976 45.8431 37.1462 46.0869 37.1581C46.3307 37.1701 46.5752 37.145 46.8061 37.0845C47.0371 37.024 47.2498 36.9292 47.432 36.8057L51.1541 34.3349C51.5561 34.0691 51.7895 33.6852 51.7895 33.2717C51.7895 32.8682 51.5561 32.4744 51.1541 32.2086L47.432 29.7378ZM43.0875 25.0916C42.0759 24.9144 41.0903 25.3771 40.8439 26.135L36.5513 39.7588C36.4872 39.9659 36.4854 40.1813 36.546 40.389C36.6065 40.5967 36.7278 40.7915 36.9009 40.9588C37.074 41.1261 37.2945 41.2617 37.546 41.3556C37.7975 41.4495 38.0736 41.4992 38.3539 41.5011C39.1969 41.5011 39.962 41.068 40.1566 40.4183L44.4492 26.7946C44.6956 26.0267 44.0861 25.2688 43.0875 25.0916Z" fill="white"/>
</g>
<defs>
<clipPath id="clip0_222_2">
<rect width="83" height="63" fill="white"/>
</clipPath>
</defs>
</svg>
