<svg width="68" height="65" viewBox="0 0 68 65" fill="none" xmlns="http://www.w3.org/2000/svg">
<path d="M30.1752 32.3984C21.7814 32.3984 14.9814 25.8984 14.9814 17.875C14.9814 9.85156 21.7814 3.45312 30.1752 3.45312C38.5689 3.45312 45.3689 9.85156 45.3689 17.875C45.3689 25.8984 38.5689 32.3984 30.1752 32.3984ZM30.1752 5.38281C22.9502 5.38281 17.1064 10.9688 17.1064 17.875C17.1064 24.7813 22.9502 30.4688 30.1752 30.4688C37.4002 30.4688 43.2439 24.8828 43.2439 17.9766C43.2439 11.0703 37.5064 5.38281 30.1752 5.38281Z" fill="white" fill-opacity="0.7"/>
<path d="M30.1752 59.6172C30.0689 59.6172 27.5189 59.5156 24.0127 59.2109C20.8252 58.9062 15.9377 58.2969 11.6877 57.2813C7.65018 56.1641 2.97518 53.7266 1.91268 52C-0.21232 48.75 1.91268 45.1953 2.65643 43.9766C7.43768 36.4609 22.2064 31.7891 22.7377 31.6875L23.2689 31.4844L30.3877 36.6641L37.0814 31.4844L37.6127 31.6875C37.9314 31.7891 44.0939 33.7188 49.8314 37.0703L48.7689 38.6953C44.0939 35.9531 39.1002 34.125 37.5064 33.5156L31.5564 38.0859L35.2752 48.6484L30.8127 55.4531L26.3502 48.6484L29.2189 37.9844L22.8439 33.3125C20.2939 34.4297 8.18143 38.6953 4.35643 44.8906C2.76268 47.4297 2.55018 49.3594 3.50643 50.8828C4.25018 52 8.07518 54.3359 12.2189 55.4531C16.3627 56.5703 21.0377 57.1797 24.2252 57.2813C27.7314 57.5859 30.1752 57.6875 30.1752 57.6875C30.1752 57.6875 36.8689 57.4844 43.6689 56.2656L43.9877 58.0938C37.1877 59.4141 30.2814 59.6172 30.1752 59.6172ZM28.4752 48.4453L30.7064 51.8984L32.9377 48.3437L30.3877 41.0313L28.4752 48.4453ZM52.8064 52.5078C50.1502 52.5078 47.9189 50.4766 47.9189 47.8359C47.9189 45.1953 50.0439 43.1641 52.8064 43.1641C55.5689 43.1641 57.6939 45.1953 57.6939 47.8359C57.5877 50.4766 55.4627 52.5078 52.8064 52.5078ZM52.8064 45.1953C51.2127 45.1953 50.0439 46.4141 50.0439 47.8359C50.0439 49.3594 51.3189 50.4766 52.8064 50.4766C54.4002 50.4766 55.5689 49.2578 55.5689 47.8359C55.5689 46.5156 54.2939 45.1953 52.8064 45.1953Z" fill="white" fill-opacity="0.7"/>
<path d="M56.0999 61.5469H49.9374L48.9811 58.9062C48.5561 58.8047 48.2374 58.6016 47.8124 58.5L45.0499 59.9219L40.5874 55.7578L41.9687 53.2188C41.7562 52.9141 41.6499 52.5078 41.4374 52.1016L38.4624 51.1875V45.2969L41.2249 44.3828C41.3312 43.9766 41.5437 43.6719 41.6499 43.2656L40.1624 40.625L44.5187 36.3594L47.1749 37.6797C47.4937 37.4766 47.9187 37.375 48.3437 37.1719L49.2999 34.3281H55.4624L56.4186 36.9688C56.8437 37.0703 57.1624 37.2734 57.5874 37.375L60.3499 35.9531L64.7062 40.1172L63.3249 42.6563C63.5374 42.9609 63.6437 43.3672 63.8561 43.7734L66.8312 44.6875V50.5781L64.0687 51.4922C63.9624 51.8984 63.7499 52.2031 63.6437 52.6094L65.1312 55.25L60.8812 59.6172L58.2249 58.2969C57.7999 58.5 57.4812 58.6016 57.0562 58.8047L56.0999 61.5469ZM51.3187 59.6172H54.6124L55.4624 57.1797L55.9937 56.9766C56.6312 56.7734 57.1624 56.5703 57.7999 56.2656L58.3312 55.9609L60.5624 57.0781L62.7936 54.9453L61.5187 52.7109L61.7311 52.3047C62.0499 51.6953 62.2624 51.1875 62.4749 50.5781L62.5812 50.0703L65.0249 49.2578V46.1094L62.4749 45.2969L62.2624 44.7891C62.0499 44.1797 61.8374 43.6719 61.5187 43.0625L61.1999 42.6563L62.3687 40.5234L60.1374 38.4922L57.6937 39.6094L57.1624 39.4062C56.5249 39.1016 55.9937 38.8984 55.3561 38.6953L54.9312 38.5938L54.0812 36.2578H50.7874L49.9374 38.6953L49.4062 38.8984C48.7687 39.1016 48.1312 39.4063 47.5999 39.6094L47.2812 39.9141L45.0499 38.6953L42.8187 40.8281L44.0937 43.0625L43.8812 43.4688C43.5624 43.9766 43.3499 44.5859 43.1374 45.1953L43.0312 45.7031L40.5874 46.5156V49.6641L43.1374 50.4766L43.3499 50.9844C43.5624 51.5938 43.8812 52.2031 44.0937 52.7109L44.4124 53.2188L43.1374 55.3516L45.3687 57.4844L47.7062 56.2656L48.1312 56.4688C48.6624 56.7734 49.2999 56.9766 49.9374 57.1797L50.4687 57.2813L51.3187 59.6172ZM52.8062 52.5078C50.1499 52.5078 47.9186 50.4766 47.9186 47.8359C47.9186 45.1953 50.0437 43.1641 52.8062 43.1641C55.5687 43.1641 57.6937 45.1953 57.6937 47.8359C57.5874 50.4766 55.4624 52.5078 52.8062 52.5078ZM52.8062 45.1953C51.2124 45.1953 50.0436 46.4141 50.0436 47.8359C50.0436 49.3594 51.3187 50.4766 52.8062 50.4766C54.3999 50.4766 55.5687 49.2578 55.5687 47.8359C55.5687 46.5156 54.2937 45.1953 52.8062 45.1953Z" fill="white" fill-opacity="0.7"/>
</svg>
