<svg width="57" height="59" viewBox="0 0 57 59" fill="none" xmlns="http://www.w3.org/2000/svg">
<path d="M35.8411 39.2844C51.4472 39.2044 57 30.7672 57 23.5326C57 19.4667 54.1809 16.0652 50.4355 15.2433C50.7585 14.305 51.0387 13.4443 51.2287 12.7921C52.0671 9.89971 51.5233 6.84244 49.7396 4.40584C47.9204 1.92559 45.1392 0.5 42.1064 0.5H14.8936C11.8607 0.5 9.07725 1.92559 7.258 4.40826C5.47438 6.84486 4.93288 9.90213 5.77125 12.7921C5.96125 13.4443 6.23912 14.305 6.5645 15.2433C2.81912 16.0652 0 19.4667 0 23.5326C0 30.7672 5.55513 39.2044 21.1589 39.2844C21.2919 40.0166 21.375 40.7633 21.375 41.5222V48.9896C21.375 53.4167 17.727 53.8191 16.625 53.8385H14.25C12.9366 53.8385 11.875 54.9223 11.875 56.263C11.875 57.6038 12.9366 58.6875 14.25 58.6875H42.75C44.0634 58.6875 45.125 57.6038 45.125 56.263C45.125 54.9223 44.0634 53.8385 42.75 53.8385H40.394C39.273 53.8191 35.625 53.4167 35.625 48.9896V41.5222C35.625 40.7633 35.7081 40.0166 35.8411 39.2844ZM48.6875 19.8958C50.6516 19.8958 52.25 21.5275 52.25 23.5326C52.25 28.4639 48.4286 33.7081 37.9145 34.37C38.4394 33.6451 39.0402 32.9735 39.7242 32.3795C43.8544 28.7961 46.6901 24.0077 48.5759 19.8716C48.6162 19.8716 48.6471 19.8958 48.6875 19.8958ZM4.75 23.5326C4.75 21.5275 6.34837 19.8958 8.3125 19.8958C8.35287 19.8958 8.38612 19.874 8.42412 19.8716C10.3099 24.0077 13.1432 28.7937 17.2757 32.3795C17.9597 32.9735 18.5606 33.6426 19.0855 34.37C8.57138 33.7081 4.75 28.4639 4.75 23.5326ZM24.9684 53.8385C25.669 52.5269 26.125 50.9437 26.125 48.9896V41.5222C26.125 36.5496 24.0208 31.8728 20.3514 28.687C16.15 25.0406 12.4022 18.5842 10.3265 11.4199C9.918 10.0064 10.184 8.51048 11.0651 7.31279C11.9771 6.06418 13.3736 5.34896 14.8936 5.34896H42.104C43.624 5.34896 45.0205 6.06418 45.9325 7.31036C46.8089 8.51048 47.0772 10.0064 46.6711 11.4174C44.593 18.5866 40.8452 25.0406 36.6462 28.687C32.9769 31.8703 30.8726 36.5496 30.8726 41.5222V48.9896C30.8726 50.9437 31.3262 52.5269 32.0292 53.8385H24.9684ZM23.2536 24.1702C22.6266 23.7289 22.363 22.9143 22.6124 22.1773L23.845 18.2836L20.6007 15.8591C19.8241 15.2772 19.6555 14.1644 20.2255 13.3716C20.5532 12.9158 21.0758 12.6442 21.6291 12.6442H25.6215L26.8351 8.78202C27.1415 7.84375 28.1343 7.33946 29.0534 7.65221C29.5759 7.8292 29.9867 8.24863 30.1601 8.78202L31.3714 12.6442H35.3637C36.3256 12.6442 37.107 13.4394 37.107 14.4238C37.107 14.9935 36.841 15.5269 36.3921 15.8615L33.1479 18.286L34.3805 22.1797C34.675 23.1155 34.1715 24.1193 33.2524 24.4223C32.7204 24.5969 32.1385 24.4999 31.6873 24.1629L28.4976 21.7675L25.3056 24.1605C24.6976 24.6236 23.8664 24.626 23.2536 24.1702Z" fill="white" fill-opacity="0.7"/>
</svg>
