<svg width="57" height="51" viewBox="0 0 57 51" fill="none" xmlns="http://www.w3.org/2000/svg">
<path d="M16.3046 42.8C15.6077 42.8011 14.9347 42.4818 14.4138 41.9029L0 25.885L15.215 8.97624C15.7808 8.35805 16.5191 8.04442 17.2691 8.10365C18.019 8.16288 18.7198 8.59018 19.2189 9.29247C19.718 9.99476 19.9748 10.9151 19.9335 11.8531C19.8922 12.7911 19.5561 13.6707 18.9984 14.3002L8.57598 25.885L18.1988 36.575C18.6304 37.0549 18.9351 37.6874 19.0726 38.3887C19.2102 39.09 19.174 39.8269 18.969 40.502C18.764 41.177 18.3998 41.7583 17.9246 42.1687C17.4494 42.5792 16.8856 42.7994 16.3081 42.8004L16.3046 42.8ZM41.785 42.7933L57 25.8846L42.5865 9.86664C42.0199 9.25612 41.2839 8.94877 40.5375 9.011C39.7911 9.07323 39.0943 9.50004 38.5976 10.1992C38.1008 10.8984 37.8441 11.8138 37.8828 12.7477C37.9214 13.6816 38.2525 14.5589 38.8043 15.1902L48.4272 25.8846L38.0038 37.465C37.444 38.0937 37.1059 38.9738 37.0634 39.913C37.0208 40.8523 37.2773 41.7744 37.7767 42.4781C38.2761 43.1818 38.978 43.61 39.729 43.669C40.48 43.7281 41.2193 43.4132 41.7853 42.7933H41.785ZM28.461 47.8388L34.1581 5.10549C34.2223 4.64306 34.2127 4.16934 34.1298 3.71158C34.047 3.25382 33.8925 2.82106 33.6754 2.4382C33.4582 2.05535 33.1826 1.72996 32.8645 1.48075C32.5464 1.23155 32.192 1.06345 31.8217 0.986135C31.4514 0.908818 31.0725 0.923807 30.7068 1.03024C30.3412 1.13667 29.996 1.33245 29.6911 1.6063C29.3862 1.88015 29.1277 2.22668 28.9303 2.62593C28.7329 3.02518 28.6007 3.46929 28.5412 3.93268L22.8437 46.666C22.782 47.1274 22.7936 47.5995 22.8779 48.0553C22.9622 48.5111 23.1175 48.9416 23.3349 49.3223C23.5523 49.7031 23.8276 50.0265 24.1451 50.2742C24.4625 50.5218 24.8159 50.6889 25.185 50.7658C25.3409 50.7967 25.4985 50.8123 25.6563 50.8125C26.3297 50.8113 26.981 50.512 27.4947 49.9677C28.0083 49.4233 28.3511 48.6691 28.4623 47.8388H28.461Z" fill="white" fill-opacity="0.8"/>
</svg>
